<mxfile host="app.diagrams.net" modified="2024-06-01T10:00:18.246Z" agent="Mozilla/5.0 (Windows NT 10.0; Win64; x64) AppleWebKit/537.36 (KHTML, like Gecko) Chrome/125.0.0.0 Safari/537.36" etag="5-iLoeirMVdKTMYH6-He" version="24.4.13" type="device" pages="4">
  <diagram name="Логическая (1)" id="8nunTRnJnk0Z7Gpdhql-">
    <mxGraphModel dx="940" dy="1242" grid="0" gridSize="10" guides="1" tooltips="1" connect="1" arrows="1" fold="1" page="1" pageScale="1" pageWidth="1169" pageHeight="827" math="0" shadow="0">
      <root>
        <mxCell id="0" />
        <mxCell id="1" parent="0" />
        <mxCell id="D01IqpzcgCZlbl3rqyAx-9" value="Номера" style="rounded=0;whiteSpace=wrap;html=1;" vertex="1" parent="1">
          <mxGeometry x="26" y="419" width="120" height="28" as="geometry" />
        </mxCell>
        <mxCell id="D01IqpzcgCZlbl3rqyAx-8" value="Почему мы" style="rounded=0;whiteSpace=wrap;html=1;" vertex="1" parent="1">
          <mxGeometry x="26" y="461" width="120" height="28" as="geometry" />
        </mxCell>
        <mxCell id="D01IqpzcgCZlbl3rqyAx-1" value="Стартовая страница" style="rounded=0;whiteSpace=wrap;html=1;" vertex="1" parent="1">
          <mxGeometry x="11" y="317" width="135" height="28" as="geometry" />
        </mxCell>
        <mxCell id="D01IqpzcgCZlbl3rqyAx-3" value="Раздел: Каталог" style="rounded=0;whiteSpace=wrap;html=1;" vertex="1" parent="1">
          <mxGeometry x="234" y="152" width="120" height="28" as="geometry" />
        </mxCell>
        <mxCell id="D01IqpzcgCZlbl3rqyAx-4" value="Раздел: Контакты" style="rounded=0;whiteSpace=wrap;html=1;" vertex="1" parent="1">
          <mxGeometry x="234" y="317" width="120" height="28" as="geometry" />
        </mxCell>
        <mxCell id="D01IqpzcgCZlbl3rqyAx-5" value="Раздел: Услуги&amp;nbsp;" style="rounded=0;whiteSpace=wrap;html=1;" vertex="1" parent="1">
          <mxGeometry x="234" y="482" width="120" height="28" as="geometry" />
        </mxCell>
        <mxCell id="D01IqpzcgCZlbl3rqyAx-7" value="Услуги" style="rounded=0;whiteSpace=wrap;html=1;" vertex="1" parent="1">
          <mxGeometry x="26" y="379" width="120" height="28" as="geometry" />
        </mxCell>
        <mxCell id="D01IqpzcgCZlbl3rqyAx-10" value="Контакты" style="rounded=0;whiteSpace=wrap;html=1;" vertex="1" parent="1">
          <mxGeometry x="26" y="501" width="120" height="28" as="geometry" />
        </mxCell>
        <mxCell id="D01IqpzcgCZlbl3rqyAx-11" value="Телефонные номера" style="rounded=0;whiteSpace=wrap;html=1;" vertex="1" parent="1">
          <mxGeometry x="397" y="277" width="135" height="28" as="geometry" />
        </mxCell>
        <mxCell id="D01IqpzcgCZlbl3rqyAx-12" value="Адрес" style="rounded=0;whiteSpace=wrap;html=1;" vertex="1" parent="1">
          <mxGeometry x="397" y="317" width="135" height="28" as="geometry" />
        </mxCell>
        <mxCell id="D01IqpzcgCZlbl3rqyAx-13" value="Категория: Включены в стоимость" style="rounded=0;whiteSpace=wrap;html=1;" vertex="1" parent="1">
          <mxGeometry x="397" y="391" width="155" height="30" as="geometry" />
        </mxCell>
        <mxCell id="D01IqpzcgCZlbl3rqyAx-14" value="Категория: Красота &amp;amp; здоровье" style="rounded=0;whiteSpace=wrap;html=1;" vertex="1" parent="1">
          <mxGeometry x="397" y="435" width="155" height="30" as="geometry" />
        </mxCell>
        <mxCell id="D01IqpzcgCZlbl3rqyAx-15" value="Категория: Мероприятния &amp;amp; развлечения" style="rounded=0;whiteSpace=wrap;html=1;" vertex="1" parent="1">
          <mxGeometry x="397" y="480" width="155" height="30" as="geometry" />
        </mxCell>
        <mxCell id="D01IqpzcgCZlbl3rqyAx-16" value="" style="rounded=0;whiteSpace=wrap;html=1;" vertex="1" parent="1">
          <mxGeometry x="541" y="646" width="120" height="28" as="geometry" />
        </mxCell>
        <mxCell id="D01IqpzcgCZlbl3rqyAx-17" value="" style="rounded=0;whiteSpace=wrap;html=1;" vertex="1" parent="1">
          <mxGeometry x="551" y="656" width="120" height="28" as="geometry" />
        </mxCell>
        <mxCell id="D01IqpzcgCZlbl3rqyAx-18" value="" style="rounded=0;whiteSpace=wrap;html=1;" vertex="1" parent="1">
          <mxGeometry x="561" y="666" width="120" height="28" as="geometry" />
        </mxCell>
        <mxCell id="D01IqpzcgCZlbl3rqyAx-19" value="" style="rounded=0;whiteSpace=wrap;html=1;" vertex="1" parent="1">
          <mxGeometry x="571" y="676" width="120" height="28" as="geometry" />
        </mxCell>
        <mxCell id="D01IqpzcgCZlbl3rqyAx-20" value="" style="rounded=0;whiteSpace=wrap;html=1;" vertex="1" parent="1">
          <mxGeometry x="581" y="686" width="120" height="28" as="geometry" />
        </mxCell>
        <mxCell id="D01IqpzcgCZlbl3rqyAx-21" value="Информация об отеле" style="rounded=0;whiteSpace=wrap;html=1;" vertex="1" parent="1">
          <mxGeometry x="397" y="237" width="135" height="28" as="geometry" />
        </mxCell>
        <mxCell id="D01IqpzcgCZlbl3rqyAx-25" value="" style="endArrow=none;html=1;rounded=0;entryX=0;entryY=0.5;entryDx=0;entryDy=0;" edge="1" parent="1" source="D01IqpzcgCZlbl3rqyAx-1" target="D01IqpzcgCZlbl3rqyAx-4">
          <mxGeometry width="50" height="50" relative="1" as="geometry">
            <mxPoint x="253" y="361" as="sourcePoint" />
            <mxPoint x="303" y="311" as="targetPoint" />
          </mxGeometry>
        </mxCell>
        <mxCell id="D01IqpzcgCZlbl3rqyAx-26" value="" style="endArrow=none;html=1;rounded=0;entryX=0;entryY=0.5;entryDx=0;entryDy=0;exitX=1;exitY=0.5;exitDx=0;exitDy=0;" edge="1" parent="1" source="D01IqpzcgCZlbl3rqyAx-1" target="D01IqpzcgCZlbl3rqyAx-3">
          <mxGeometry width="50" height="50" relative="1" as="geometry">
            <mxPoint x="260" y="304" as="sourcePoint" />
            <mxPoint x="310" y="254" as="targetPoint" />
            <Array as="points">
              <mxPoint x="191" y="331" />
              <mxPoint x="191" y="166" />
            </Array>
          </mxGeometry>
        </mxCell>
        <mxCell id="D01IqpzcgCZlbl3rqyAx-27" value="" style="endArrow=none;html=1;rounded=0;entryX=0;entryY=0.5;entryDx=0;entryDy=0;exitX=1;exitY=0.5;exitDx=0;exitDy=0;" edge="1" parent="1" source="D01IqpzcgCZlbl3rqyAx-1" target="D01IqpzcgCZlbl3rqyAx-5">
          <mxGeometry width="50" height="50" relative="1" as="geometry">
            <mxPoint x="238" y="390" as="sourcePoint" />
            <mxPoint x="288" y="340" as="targetPoint" />
            <Array as="points">
              <mxPoint x="191" y="331" />
              <mxPoint x="193" y="496" />
            </Array>
          </mxGeometry>
        </mxCell>
        <mxCell id="D01IqpzcgCZlbl3rqyAx-30" value="Номера" style="rounded=0;whiteSpace=wrap;html=1;" vertex="1" parent="1">
          <mxGeometry x="397" y="152" width="135" height="28" as="geometry" />
        </mxCell>
        <mxCell id="D01IqpzcgCZlbl3rqyAx-33" value="По количеству гостей" style="rounded=0;whiteSpace=wrap;html=1;" vertex="1" parent="1">
          <mxGeometry x="565.5" y="106" width="150" height="28" as="geometry" />
        </mxCell>
        <mxCell id="D01IqpzcgCZlbl3rqyAx-34" value="По категориям" style="rounded=0;whiteSpace=wrap;html=1;" vertex="1" parent="1">
          <mxGeometry x="565.5" y="152" width="150" height="28" as="geometry" />
        </mxCell>
        <mxCell id="D01IqpzcgCZlbl3rqyAx-35" value="По количеству кроватей" style="rounded=0;whiteSpace=wrap;html=1;" vertex="1" parent="1">
          <mxGeometry x="565.5" y="62" width="150" height="28" as="geometry" />
        </mxCell>
        <mxCell id="D01IqpzcgCZlbl3rqyAx-36" value="По цене" style="rounded=0;whiteSpace=wrap;html=1;" vertex="1" parent="1">
          <mxGeometry x="566.5" y="21" width="150" height="28" as="geometry" />
        </mxCell>
        <mxCell id="D01IqpzcgCZlbl3rqyAx-37" value="" style="endArrow=none;html=1;rounded=0;entryX=0;entryY=0.5;entryDx=0;entryDy=0;exitX=1;exitY=0.5;exitDx=0;exitDy=0;" edge="1" parent="1" source="D01IqpzcgCZlbl3rqyAx-3" target="D01IqpzcgCZlbl3rqyAx-30">
          <mxGeometry width="50" height="50" relative="1" as="geometry">
            <mxPoint x="314" y="341" as="sourcePoint" />
            <mxPoint x="364" y="291" as="targetPoint" />
          </mxGeometry>
        </mxCell>
        <mxCell id="D01IqpzcgCZlbl3rqyAx-38" value="" style="endArrow=none;html=1;rounded=0;entryX=0;entryY=0.5;entryDx=0;entryDy=0;exitX=1;exitY=0.5;exitDx=0;exitDy=0;" edge="1" parent="1" source="D01IqpzcgCZlbl3rqyAx-4" target="D01IqpzcgCZlbl3rqyAx-21">
          <mxGeometry width="50" height="50" relative="1" as="geometry">
            <mxPoint x="314" y="341" as="sourcePoint" />
            <mxPoint x="364" y="291" as="targetPoint" />
            <Array as="points">
              <mxPoint x="375" y="331" />
              <mxPoint x="375" y="251" />
            </Array>
          </mxGeometry>
        </mxCell>
        <mxCell id="D01IqpzcgCZlbl3rqyAx-39" value="" style="endArrow=none;html=1;rounded=0;entryX=0;entryY=0.5;entryDx=0;entryDy=0;exitX=1;exitY=0.5;exitDx=0;exitDy=0;" edge="1" parent="1" source="D01IqpzcgCZlbl3rqyAx-4" target="D01IqpzcgCZlbl3rqyAx-11">
          <mxGeometry width="50" height="50" relative="1" as="geometry">
            <mxPoint x="314" y="341" as="sourcePoint" />
            <mxPoint x="364" y="291" as="targetPoint" />
            <Array as="points">
              <mxPoint x="375" y="331" />
              <mxPoint x="375" y="291" />
            </Array>
          </mxGeometry>
        </mxCell>
        <mxCell id="D01IqpzcgCZlbl3rqyAx-42" value="" style="endArrow=none;html=1;rounded=0;entryX=0;entryY=0.5;entryDx=0;entryDy=0;exitX=1;exitY=0.5;exitDx=0;exitDy=0;" edge="1" parent="1" source="D01IqpzcgCZlbl3rqyAx-4" target="D01IqpzcgCZlbl3rqyAx-12">
          <mxGeometry width="50" height="50" relative="1" as="geometry">
            <mxPoint x="356" y="351" as="sourcePoint" />
            <mxPoint x="406" y="301" as="targetPoint" />
          </mxGeometry>
        </mxCell>
        <mxCell id="D01IqpzcgCZlbl3rqyAx-43" value="" style="endArrow=none;html=1;rounded=0;entryX=0;entryY=0.5;entryDx=0;entryDy=0;exitX=1;exitY=0.5;exitDx=0;exitDy=0;" edge="1" parent="1" source="D01IqpzcgCZlbl3rqyAx-5" target="D01IqpzcgCZlbl3rqyAx-13">
          <mxGeometry width="50" height="50" relative="1" as="geometry">
            <mxPoint x="353" y="454" as="sourcePoint" />
            <mxPoint x="403" y="404" as="targetPoint" />
            <Array as="points">
              <mxPoint x="378" y="496" />
              <mxPoint x="378" y="406" />
            </Array>
          </mxGeometry>
        </mxCell>
        <mxCell id="D01IqpzcgCZlbl3rqyAx-44" value="" style="endArrow=none;html=1;rounded=0;entryX=0;entryY=0.5;entryDx=0;entryDy=0;exitX=1;exitY=0.5;exitDx=0;exitDy=0;" edge="1" parent="1" source="D01IqpzcgCZlbl3rqyAx-5" target="D01IqpzcgCZlbl3rqyAx-14">
          <mxGeometry width="50" height="50" relative="1" as="geometry">
            <mxPoint x="353" y="454" as="sourcePoint" />
            <mxPoint x="403" y="404" as="targetPoint" />
            <Array as="points">
              <mxPoint x="378" y="496" />
              <mxPoint x="378" y="450" />
            </Array>
          </mxGeometry>
        </mxCell>
        <mxCell id="D01IqpzcgCZlbl3rqyAx-46" value="" style="endArrow=none;html=1;rounded=0;entryX=1;entryY=0.5;entryDx=0;entryDy=0;exitX=0;exitY=0.5;exitDx=0;exitDy=0;" edge="1" parent="1" source="D01IqpzcgCZlbl3rqyAx-36" target="D01IqpzcgCZlbl3rqyAx-30">
          <mxGeometry width="50" height="50" relative="1" as="geometry">
            <mxPoint x="605" y="256" as="sourcePoint" />
            <mxPoint x="655" y="206" as="targetPoint" />
            <Array as="points">
              <mxPoint x="540" y="35" />
              <mxPoint x="540" y="166" />
            </Array>
          </mxGeometry>
        </mxCell>
        <mxCell id="D01IqpzcgCZlbl3rqyAx-47" value="" style="endArrow=none;html=1;rounded=0;entryX=0;entryY=0.5;entryDx=0;entryDy=0;exitX=1;exitY=0.5;exitDx=0;exitDy=0;" edge="1" parent="1" source="D01IqpzcgCZlbl3rqyAx-30" target="D01IqpzcgCZlbl3rqyAx-35">
          <mxGeometry width="50" height="50" relative="1" as="geometry">
            <mxPoint x="579" y="152" as="sourcePoint" />
            <mxPoint x="629" y="102" as="targetPoint" />
            <Array as="points">
              <mxPoint x="540" y="166" />
              <mxPoint x="540" y="76" />
            </Array>
          </mxGeometry>
        </mxCell>
        <mxCell id="D01IqpzcgCZlbl3rqyAx-48" value="" style="endArrow=none;html=1;rounded=0;entryX=0;entryY=0.5;entryDx=0;entryDy=0;exitX=1;exitY=0.5;exitDx=0;exitDy=0;" edge="1" parent="1" source="D01IqpzcgCZlbl3rqyAx-30" target="D01IqpzcgCZlbl3rqyAx-33">
          <mxGeometry width="50" height="50" relative="1" as="geometry">
            <mxPoint x="579" y="152" as="sourcePoint" />
            <mxPoint x="629" y="102" as="targetPoint" />
            <Array as="points">
              <mxPoint x="540" y="166" />
              <mxPoint x="540" y="120" />
            </Array>
          </mxGeometry>
        </mxCell>
        <mxCell id="D01IqpzcgCZlbl3rqyAx-49" value="" style="endArrow=none;html=1;rounded=0;entryX=0;entryY=0.5;entryDx=0;entryDy=0;" edge="1" parent="1" source="D01IqpzcgCZlbl3rqyAx-30" target="D01IqpzcgCZlbl3rqyAx-34">
          <mxGeometry width="50" height="50" relative="1" as="geometry">
            <mxPoint x="579" y="152" as="sourcePoint" />
            <mxPoint x="629" y="102" as="targetPoint" />
          </mxGeometry>
        </mxCell>
        <mxCell id="D01IqpzcgCZlbl3rqyAx-50" value="" style="endArrow=none;html=1;rounded=0;entryX=0;entryY=0.5;entryDx=0;entryDy=0;exitX=0;exitY=0.5;exitDx=0;exitDy=0;" edge="1" parent="1" source="D01IqpzcgCZlbl3rqyAx-10" target="D01IqpzcgCZlbl3rqyAx-1">
          <mxGeometry width="50" height="50" relative="1" as="geometry">
            <mxPoint x="286" y="478" as="sourcePoint" />
            <mxPoint x="336" y="428" as="targetPoint" />
            <Array as="points">
              <mxPoint x="1" y="515" />
              <mxPoint x="1" y="331" />
            </Array>
          </mxGeometry>
        </mxCell>
        <mxCell id="D01IqpzcgCZlbl3rqyAx-51" value="" style="endArrow=none;html=1;rounded=0;entryX=0;entryY=0.5;entryDx=0;entryDy=0;exitX=0;exitY=0.5;exitDx=0;exitDy=0;" edge="1" parent="1" source="D01IqpzcgCZlbl3rqyAx-8" target="D01IqpzcgCZlbl3rqyAx-1">
          <mxGeometry width="50" height="50" relative="1" as="geometry">
            <mxPoint x="286" y="478" as="sourcePoint" />
            <mxPoint x="336" y="428" as="targetPoint" />
            <Array as="points">
              <mxPoint x="1" y="475" />
              <mxPoint x="1" y="331" />
            </Array>
          </mxGeometry>
        </mxCell>
        <mxCell id="D01IqpzcgCZlbl3rqyAx-52" value="" style="endArrow=none;html=1;rounded=0;entryX=0;entryY=0.5;entryDx=0;entryDy=0;exitX=0.002;exitY=0.592;exitDx=0;exitDy=0;exitPerimeter=0;" edge="1" parent="1" source="D01IqpzcgCZlbl3rqyAx-9" target="D01IqpzcgCZlbl3rqyAx-1">
          <mxGeometry width="50" height="50" relative="1" as="geometry">
            <mxPoint x="76" y="448" as="sourcePoint" />
            <mxPoint x="126" y="398" as="targetPoint" />
            <Array as="points">
              <mxPoint x="1" y="436" />
              <mxPoint x="1" y="331" />
            </Array>
          </mxGeometry>
        </mxCell>
        <mxCell id="D01IqpzcgCZlbl3rqyAx-53" value="" style="endArrow=none;html=1;rounded=0;entryX=0;entryY=0.5;entryDx=0;entryDy=0;exitX=0;exitY=0.5;exitDx=0;exitDy=0;" edge="1" parent="1" source="D01IqpzcgCZlbl3rqyAx-7" target="D01IqpzcgCZlbl3rqyAx-1">
          <mxGeometry width="50" height="50" relative="1" as="geometry">
            <mxPoint x="76" y="438" as="sourcePoint" />
            <mxPoint x="126" y="388" as="targetPoint" />
            <Array as="points">
              <mxPoint x="1" y="393" />
              <mxPoint x="1" y="331" />
            </Array>
          </mxGeometry>
        </mxCell>
        <mxCell id="D01IqpzcgCZlbl3rqyAx-54" value="" style="endArrow=none;html=1;rounded=0;exitX=1;exitY=0.5;exitDx=0;exitDy=0;" edge="1" parent="1" source="D01IqpzcgCZlbl3rqyAx-5" target="D01IqpzcgCZlbl3rqyAx-15">
          <mxGeometry width="50" height="50" relative="1" as="geometry">
            <mxPoint x="357" y="508" as="sourcePoint" />
            <mxPoint x="407" y="458" as="targetPoint" />
          </mxGeometry>
        </mxCell>
      </root>
    </mxGraphModel>
  </diagram>
  <diagram id="a3_cIhdeEmWWmTUoKWY6" name="Логическая (2)">
    <mxGraphModel dx="1050" dy="629" grid="0" gridSize="10" guides="1" tooltips="1" connect="1" arrows="1" fold="1" page="1" pageScale="1" pageWidth="1169" pageHeight="827" math="0" shadow="0">
      <root>
        <mxCell id="0" />
        <mxCell id="1" parent="0" />
        <mxCell id="GtCj5q631Aes_3D9QNSs-3" value="Стартовая страница" style="rounded=0;whiteSpace=wrap;html=1;" vertex="1" parent="1">
          <mxGeometry x="11" y="317" width="135" height="28" as="geometry" />
        </mxCell>
        <mxCell id="GtCj5q631Aes_3D9QNSs-4" value="Раздел: Каталог" style="rounded=0;whiteSpace=wrap;html=1;" vertex="1" parent="1">
          <mxGeometry x="234" y="152" width="120" height="28" as="geometry" />
        </mxCell>
        <mxCell id="GtCj5q631Aes_3D9QNSs-5" value="Раздел: Контакты" style="rounded=0;whiteSpace=wrap;html=1;" vertex="1" parent="1">
          <mxGeometry x="234" y="317" width="120" height="28" as="geometry" />
        </mxCell>
        <mxCell id="GtCj5q631Aes_3D9QNSs-6" value="Раздел: Услуги&amp;nbsp;" style="rounded=0;whiteSpace=wrap;html=1;" vertex="1" parent="1">
          <mxGeometry x="234" y="482" width="120" height="28" as="geometry" />
        </mxCell>
        <mxCell id="GtCj5q631Aes_3D9QNSs-9" value="Телефонные номера" style="rounded=0;whiteSpace=wrap;html=1;" vertex="1" parent="1">
          <mxGeometry x="397" y="277" width="135" height="28" as="geometry" />
        </mxCell>
        <mxCell id="GtCj5q631Aes_3D9QNSs-10" value="Адрес" style="rounded=0;whiteSpace=wrap;html=1;" vertex="1" parent="1">
          <mxGeometry x="397" y="317" width="135" height="28" as="geometry" />
        </mxCell>
        <mxCell id="GtCj5q631Aes_3D9QNSs-11" value="Категория: Включены в стоимость" style="rounded=0;whiteSpace=wrap;html=1;" vertex="1" parent="1">
          <mxGeometry x="397" y="391" width="155" height="30" as="geometry" />
        </mxCell>
        <mxCell id="GtCj5q631Aes_3D9QNSs-12" value="Категория: Красота &amp;amp; здоровье" style="rounded=0;whiteSpace=wrap;html=1;" vertex="1" parent="1">
          <mxGeometry x="397" y="435" width="155" height="30" as="geometry" />
        </mxCell>
        <mxCell id="GtCj5q631Aes_3D9QNSs-13" value="Категория: Мероприятния &amp;amp; развлечения" style="rounded=0;whiteSpace=wrap;html=1;" vertex="1" parent="1">
          <mxGeometry x="397" y="480" width="155" height="30" as="geometry" />
        </mxCell>
        <mxCell id="GtCj5q631Aes_3D9QNSs-14" value="Аккаунт" style="rounded=0;whiteSpace=wrap;html=1;" vertex="1" parent="1">
          <mxGeometry x="399.5" y="532" width="120" height="28" as="geometry" />
        </mxCell>
        <mxCell id="GtCj5q631Aes_3D9QNSs-15" value="История" style="rounded=0;whiteSpace=wrap;html=1;" vertex="1" parent="1">
          <mxGeometry x="398.5" y="575" width="120" height="28" as="geometry" />
        </mxCell>
        <mxCell id="GtCj5q631Aes_3D9QNSs-18" value="Раздел: Аккаунт" style="rounded=0;whiteSpace=wrap;html=1;" vertex="1" parent="1">
          <mxGeometry x="234" y="575" width="120" height="28" as="geometry" />
        </mxCell>
        <mxCell id="GtCj5q631Aes_3D9QNSs-19" value="Информация об отеле" style="rounded=0;whiteSpace=wrap;html=1;" vertex="1" parent="1">
          <mxGeometry x="397" y="237" width="135" height="28" as="geometry" />
        </mxCell>
        <mxCell id="GtCj5q631Aes_3D9QNSs-20" value="" style="endArrow=none;html=1;rounded=0;entryX=0;entryY=0.5;entryDx=0;entryDy=0;" edge="1" parent="1" source="GtCj5q631Aes_3D9QNSs-3" target="GtCj5q631Aes_3D9QNSs-5">
          <mxGeometry width="50" height="50" relative="1" as="geometry">
            <mxPoint x="253" y="361" as="sourcePoint" />
            <mxPoint x="303" y="311" as="targetPoint" />
          </mxGeometry>
        </mxCell>
        <mxCell id="GtCj5q631Aes_3D9QNSs-21" value="" style="endArrow=none;html=1;rounded=0;entryX=0;entryY=0.5;entryDx=0;entryDy=0;exitX=1;exitY=0.5;exitDx=0;exitDy=0;" edge="1" parent="1" source="GtCj5q631Aes_3D9QNSs-3" target="GtCj5q631Aes_3D9QNSs-4">
          <mxGeometry width="50" height="50" relative="1" as="geometry">
            <mxPoint x="260" y="304" as="sourcePoint" />
            <mxPoint x="310" y="254" as="targetPoint" />
            <Array as="points">
              <mxPoint x="191" y="331" />
              <mxPoint x="191" y="166" />
            </Array>
          </mxGeometry>
        </mxCell>
        <mxCell id="GtCj5q631Aes_3D9QNSs-22" value="" style="endArrow=none;html=1;rounded=0;entryX=0;entryY=0.5;entryDx=0;entryDy=0;exitX=1;exitY=0.5;exitDx=0;exitDy=0;" edge="1" parent="1" source="GtCj5q631Aes_3D9QNSs-3" target="GtCj5q631Aes_3D9QNSs-6">
          <mxGeometry width="50" height="50" relative="1" as="geometry">
            <mxPoint x="238" y="390" as="sourcePoint" />
            <mxPoint x="288" y="340" as="targetPoint" />
            <Array as="points">
              <mxPoint x="191" y="331" />
              <mxPoint x="193" y="496" />
            </Array>
          </mxGeometry>
        </mxCell>
        <mxCell id="GtCj5q631Aes_3D9QNSs-24" value="По количеству гостей" style="rounded=0;whiteSpace=wrap;html=1;" vertex="1" parent="1">
          <mxGeometry x="398.5" y="106" width="150" height="28" as="geometry" />
        </mxCell>
        <mxCell id="GtCj5q631Aes_3D9QNSs-25" value="По категориям" style="rounded=0;whiteSpace=wrap;html=1;" vertex="1" parent="1">
          <mxGeometry x="398.5" y="152" width="150" height="28" as="geometry" />
        </mxCell>
        <mxCell id="GtCj5q631Aes_3D9QNSs-26" value="По количеству кроватей" style="rounded=0;whiteSpace=wrap;html=1;" vertex="1" parent="1">
          <mxGeometry x="398.5" y="62" width="150" height="28" as="geometry" />
        </mxCell>
        <mxCell id="GtCj5q631Aes_3D9QNSs-27" value="По цене" style="rounded=0;whiteSpace=wrap;html=1;" vertex="1" parent="1">
          <mxGeometry x="399.5" y="21" width="150" height="28" as="geometry" />
        </mxCell>
        <mxCell id="GtCj5q631Aes_3D9QNSs-28" value="" style="endArrow=none;html=1;rounded=0;entryX=0;entryY=0.5;entryDx=0;entryDy=0;exitX=1;exitY=0.5;exitDx=0;exitDy=0;" edge="1" parent="1" source="GtCj5q631Aes_3D9QNSs-4">
          <mxGeometry width="50" height="50" relative="1" as="geometry">
            <mxPoint x="314" y="341" as="sourcePoint" />
            <mxPoint x="397" y="166" as="targetPoint" />
          </mxGeometry>
        </mxCell>
        <mxCell id="GtCj5q631Aes_3D9QNSs-29" value="" style="endArrow=none;html=1;rounded=0;entryX=0;entryY=0.5;entryDx=0;entryDy=0;exitX=1;exitY=0.5;exitDx=0;exitDy=0;" edge="1" parent="1" source="GtCj5q631Aes_3D9QNSs-5" target="GtCj5q631Aes_3D9QNSs-19">
          <mxGeometry width="50" height="50" relative="1" as="geometry">
            <mxPoint x="314" y="341" as="sourcePoint" />
            <mxPoint x="364" y="291" as="targetPoint" />
            <Array as="points">
              <mxPoint x="375" y="331" />
              <mxPoint x="375" y="251" />
            </Array>
          </mxGeometry>
        </mxCell>
        <mxCell id="GtCj5q631Aes_3D9QNSs-30" value="" style="endArrow=none;html=1;rounded=0;entryX=0;entryY=0.5;entryDx=0;entryDy=0;exitX=1;exitY=0.5;exitDx=0;exitDy=0;" edge="1" parent="1" source="GtCj5q631Aes_3D9QNSs-5" target="GtCj5q631Aes_3D9QNSs-9">
          <mxGeometry width="50" height="50" relative="1" as="geometry">
            <mxPoint x="314" y="341" as="sourcePoint" />
            <mxPoint x="364" y="291" as="targetPoint" />
            <Array as="points">
              <mxPoint x="375" y="331" />
              <mxPoint x="375" y="291" />
            </Array>
          </mxGeometry>
        </mxCell>
        <mxCell id="GtCj5q631Aes_3D9QNSs-31" value="" style="endArrow=none;html=1;rounded=0;entryX=0;entryY=0.5;entryDx=0;entryDy=0;exitX=1;exitY=0.5;exitDx=0;exitDy=0;" edge="1" parent="1" source="GtCj5q631Aes_3D9QNSs-5" target="GtCj5q631Aes_3D9QNSs-10">
          <mxGeometry width="50" height="50" relative="1" as="geometry">
            <mxPoint x="356" y="351" as="sourcePoint" />
            <mxPoint x="406" y="301" as="targetPoint" />
          </mxGeometry>
        </mxCell>
        <mxCell id="GtCj5q631Aes_3D9QNSs-32" value="" style="endArrow=none;html=1;rounded=0;entryX=0;entryY=0.5;entryDx=0;entryDy=0;exitX=1;exitY=0.5;exitDx=0;exitDy=0;" edge="1" parent="1" source="GtCj5q631Aes_3D9QNSs-6" target="GtCj5q631Aes_3D9QNSs-11">
          <mxGeometry width="50" height="50" relative="1" as="geometry">
            <mxPoint x="353" y="454" as="sourcePoint" />
            <mxPoint x="403" y="404" as="targetPoint" />
            <Array as="points">
              <mxPoint x="378" y="496" />
              <mxPoint x="378" y="406" />
            </Array>
          </mxGeometry>
        </mxCell>
        <mxCell id="GtCj5q631Aes_3D9QNSs-33" value="" style="endArrow=none;html=1;rounded=0;entryX=0;entryY=0.5;entryDx=0;entryDy=0;exitX=1;exitY=0.5;exitDx=0;exitDy=0;" edge="1" parent="1" source="GtCj5q631Aes_3D9QNSs-6" target="GtCj5q631Aes_3D9QNSs-12">
          <mxGeometry width="50" height="50" relative="1" as="geometry">
            <mxPoint x="353" y="454" as="sourcePoint" />
            <mxPoint x="403" y="404" as="targetPoint" />
            <Array as="points">
              <mxPoint x="378" y="496" />
              <mxPoint x="378" y="450" />
            </Array>
          </mxGeometry>
        </mxCell>
        <mxCell id="GtCj5q631Aes_3D9QNSs-34" value="" style="endArrow=none;html=1;rounded=0;entryX=1;entryY=0.5;entryDx=0;entryDy=0;exitX=0;exitY=0.5;exitDx=0;exitDy=0;" edge="1" parent="1" source="GtCj5q631Aes_3D9QNSs-27">
          <mxGeometry width="50" height="50" relative="1" as="geometry">
            <mxPoint x="438" y="256" as="sourcePoint" />
            <mxPoint x="365" y="166" as="targetPoint" />
            <Array as="points">
              <mxPoint x="373" y="35" />
              <mxPoint x="373" y="166" />
            </Array>
          </mxGeometry>
        </mxCell>
        <mxCell id="GtCj5q631Aes_3D9QNSs-35" value="" style="endArrow=none;html=1;rounded=0;entryX=0;entryY=0.5;entryDx=0;entryDy=0;exitX=1;exitY=0.5;exitDx=0;exitDy=0;" edge="1" parent="1" target="GtCj5q631Aes_3D9QNSs-26">
          <mxGeometry width="50" height="50" relative="1" as="geometry">
            <mxPoint x="365" y="166" as="sourcePoint" />
            <mxPoint x="462" y="102" as="targetPoint" />
            <Array as="points">
              <mxPoint x="373" y="166" />
              <mxPoint x="373" y="76" />
            </Array>
          </mxGeometry>
        </mxCell>
        <mxCell id="GtCj5q631Aes_3D9QNSs-36" value="" style="endArrow=none;html=1;rounded=0;entryX=0;entryY=0.5;entryDx=0;entryDy=0;exitX=1;exitY=0.5;exitDx=0;exitDy=0;" edge="1" parent="1" target="GtCj5q631Aes_3D9QNSs-24">
          <mxGeometry width="50" height="50" relative="1" as="geometry">
            <mxPoint x="365" y="166" as="sourcePoint" />
            <mxPoint x="462" y="102" as="targetPoint" />
            <Array as="points">
              <mxPoint x="373" y="166" />
              <mxPoint x="373" y="120" />
            </Array>
          </mxGeometry>
        </mxCell>
        <mxCell id="GtCj5q631Aes_3D9QNSs-37" value="" style="endArrow=none;html=1;rounded=0;entryX=0;entryY=0.5;entryDx=0;entryDy=0;" edge="1" parent="1" target="GtCj5q631Aes_3D9QNSs-25">
          <mxGeometry width="50" height="50" relative="1" as="geometry">
            <mxPoint x="365" y="166" as="sourcePoint" />
            <mxPoint x="462" y="102" as="targetPoint" />
          </mxGeometry>
        </mxCell>
        <mxCell id="GtCj5q631Aes_3D9QNSs-42" value="" style="endArrow=none;html=1;rounded=0;exitX=1;exitY=0.5;exitDx=0;exitDy=0;" edge="1" parent="1" source="GtCj5q631Aes_3D9QNSs-6" target="GtCj5q631Aes_3D9QNSs-13">
          <mxGeometry width="50" height="50" relative="1" as="geometry">
            <mxPoint x="357" y="508" as="sourcePoint" />
            <mxPoint x="407" y="458" as="targetPoint" />
          </mxGeometry>
        </mxCell>
        <mxCell id="8yKywceKJuqImcvjTiU0-3" value="Изменение данных" style="rounded=0;whiteSpace=wrap;html=1;" vertex="1" parent="1">
          <mxGeometry x="559" y="532" width="120" height="28" as="geometry" />
        </mxCell>
        <mxCell id="8yKywceKJuqImcvjTiU0-4" value="" style="endArrow=none;html=1;rounded=0;entryX=1;entryY=0.5;entryDx=0;entryDy=0;exitX=0;exitY=0.5;exitDx=0;exitDy=0;" edge="1" parent="1" source="GtCj5q631Aes_3D9QNSs-18" target="GtCj5q631Aes_3D9QNSs-3">
          <mxGeometry width="50" height="50" relative="1" as="geometry">
            <mxPoint x="416" y="503" as="sourcePoint" />
            <mxPoint x="466" y="453" as="targetPoint" />
            <Array as="points">
              <mxPoint x="194" y="589" />
              <mxPoint x="191" y="331" />
            </Array>
          </mxGeometry>
        </mxCell>
        <mxCell id="8yKywceKJuqImcvjTiU0-5" value="" style="endArrow=none;html=1;rounded=0;entryX=0;entryY=0.5;entryDx=0;entryDy=0;exitX=1;exitY=0.5;exitDx=0;exitDy=0;" edge="1" parent="1" source="GtCj5q631Aes_3D9QNSs-18" target="GtCj5q631Aes_3D9QNSs-14">
          <mxGeometry width="50" height="50" relative="1" as="geometry">
            <mxPoint x="393" y="596" as="sourcePoint" />
            <mxPoint x="443" y="546" as="targetPoint" />
            <Array as="points">
              <mxPoint x="376" y="589" />
              <mxPoint x="376" y="546" />
            </Array>
          </mxGeometry>
        </mxCell>
        <mxCell id="8yKywceKJuqImcvjTiU0-6" value="" style="endArrow=none;html=1;rounded=0;entryX=0;entryY=0.5;entryDx=0;entryDy=0;" edge="1" parent="1" source="GtCj5q631Aes_3D9QNSs-18" target="GtCj5q631Aes_3D9QNSs-15">
          <mxGeometry width="50" height="50" relative="1" as="geometry">
            <mxPoint x="393" y="596" as="sourcePoint" />
            <mxPoint x="443" y="546" as="targetPoint" />
          </mxGeometry>
        </mxCell>
        <mxCell id="8yKywceKJuqImcvjTiU0-7" value="" style="endArrow=none;html=1;rounded=0;entryX=0;entryY=0.5;entryDx=0;entryDy=0;" edge="1" parent="1" source="GtCj5q631Aes_3D9QNSs-14" target="8yKywceKJuqImcvjTiU0-3">
          <mxGeometry width="50" height="50" relative="1" as="geometry">
            <mxPoint x="393" y="596" as="sourcePoint" />
            <mxPoint x="443" y="546" as="targetPoint" />
          </mxGeometry>
        </mxCell>
      </root>
    </mxGraphModel>
  </diagram>
  <diagram id="pVM-gn2nZFb3K0M7gVxG" name="Физическая">
    <mxGraphModel dx="2049" dy="1114" grid="0" gridSize="10" guides="1" tooltips="1" connect="1" arrows="1" fold="1" page="1" pageScale="1" pageWidth="1169" pageHeight="827" math="0" shadow="0">
      <root>
        <mxCell id="0" />
        <mxCell id="1" parent="0" />
        <mxCell id="lA73tTkBRhyWHe-zrsxG-1" value="/admin" style="shape=folder;fontStyle=1;spacingTop=10;tabWidth=40;tabHeight=14;tabPosition=left;html=1;whiteSpace=wrap;" parent="1" vertex="1">
          <mxGeometry x="481" y="144" width="70" height="50" as="geometry" />
        </mxCell>
        <mxCell id="lA73tTkBRhyWHe-zrsxG-2" value="/css" style="shape=folder;fontStyle=1;spacingTop=10;tabWidth=40;tabHeight=14;tabPosition=left;html=1;whiteSpace=wrap;" parent="1" vertex="1">
          <mxGeometry x="481" y="204" width="70" height="50" as="geometry" />
        </mxCell>
        <mxCell id="lA73tTkBRhyWHe-zrsxG-3" value="/database" style="shape=folder;fontStyle=1;spacingTop=10;tabWidth=40;tabHeight=14;tabPosition=left;html=1;whiteSpace=wrap;" parent="1" vertex="1">
          <mxGeometry x="481" y="269" width="70" height="50" as="geometry" />
        </mxCell>
        <mxCell id="lA73tTkBRhyWHe-zrsxG-4" value="/fonts" style="shape=folder;fontStyle=1;spacingTop=10;tabWidth=40;tabHeight=14;tabPosition=left;html=1;whiteSpace=wrap;" parent="1" vertex="1">
          <mxGeometry x="481" y="334" width="70" height="50" as="geometry" />
        </mxCell>
        <mxCell id="lA73tTkBRhyWHe-zrsxG-5" value="/img" style="shape=folder;fontStyle=1;spacingTop=10;tabWidth=40;tabHeight=14;tabPosition=left;html=1;whiteSpace=wrap;" parent="1" vertex="1">
          <mxGeometry x="481" y="397" width="70" height="50" as="geometry" />
        </mxCell>
        <mxCell id="lA73tTkBRhyWHe-zrsxG-6" value="/js" style="shape=folder;fontStyle=1;spacingTop=10;tabWidth=40;tabHeight=14;tabPosition=left;html=1;whiteSpace=wrap;" parent="1" vertex="1">
          <mxGeometry x="481" y="459" width="70" height="50" as="geometry" />
        </mxCell>
        <mxCell id="lA73tTkBRhyWHe-zrsxG-7" value="/user" style="shape=folder;fontStyle=1;spacingTop=10;tabWidth=40;tabHeight=14;tabPosition=left;html=1;whiteSpace=wrap;" parent="1" vertex="1">
          <mxGeometry x="481" y="521" width="70" height="50" as="geometry" />
        </mxCell>
        <mxCell id="lA73tTkBRhyWHe-zrsxG-8" value="/lion" style="shape=folder;fontStyle=1;spacingTop=10;tabWidth=40;tabHeight=14;tabPosition=left;html=1;whiteSpace=wrap;" parent="1" vertex="1">
          <mxGeometry x="349" y="144" width="70" height="50" as="geometry" />
        </mxCell>
        <mxCell id="fQ_rrwtPmn1DH9PQR-Kl-2" value="style.css" style="html=1;whiteSpace=wrap;" parent="1" vertex="1">
          <mxGeometry x="590" y="222" width="110" height="28" as="geometry" />
        </mxCell>
        <mxCell id="fQ_rrwtPmn1DH9PQR-Kl-4" value="" style="endArrow=none;html=1;rounded=0;entryX=0;entryY=0.5;entryDx=0;entryDy=0;exitX=0;exitY=0;exitDx=70;exitDy=32;exitPerimeter=0;" parent="1" source="lA73tTkBRhyWHe-zrsxG-2" target="fQ_rrwtPmn1DH9PQR-Kl-2" edge="1">
          <mxGeometry width="50" height="50" relative="1" as="geometry">
            <mxPoint x="658" y="327" as="sourcePoint" />
            <mxPoint x="708" y="277" as="targetPoint" />
          </mxGeometry>
        </mxCell>
        <mxCell id="fQ_rrwtPmn1DH9PQR-Kl-5" value="sign.js" style="rounded=0;whiteSpace=wrap;html=1;" parent="1" vertex="1">
          <mxGeometry x="597" y="428" width="120" height="28" as="geometry" />
        </mxCell>
        <mxCell id="fQ_rrwtPmn1DH9PQR-Kl-6" value="eye.js" style="rounded=0;whiteSpace=wrap;html=1;" parent="1" vertex="1">
          <mxGeometry x="597" y="477" width="120" height="28" as="geometry" />
        </mxCell>
        <mxCell id="fQ_rrwtPmn1DH9PQR-Kl-8" value="" style="endArrow=none;html=1;rounded=0;exitX=0;exitY=0;exitDx=70;exitDy=32;exitPerimeter=0;entryX=0;entryY=0.5;entryDx=0;entryDy=0;" parent="1" source="lA73tTkBRhyWHe-zrsxG-6" target="fQ_rrwtPmn1DH9PQR-Kl-5" edge="1">
          <mxGeometry width="50" height="50" relative="1" as="geometry">
            <mxPoint x="559" y="503" as="sourcePoint" />
            <mxPoint x="609" y="453" as="targetPoint" />
            <Array as="points">
              <mxPoint x="571" y="491" />
              <mxPoint x="571" y="442" />
            </Array>
          </mxGeometry>
        </mxCell>
        <mxCell id="fQ_rrwtPmn1DH9PQR-Kl-9" value="" style="endArrow=none;html=1;rounded=0;exitX=0;exitY=0;exitDx=70;exitDy=32;exitPerimeter=0;" parent="1" source="lA73tTkBRhyWHe-zrsxG-6" target="fQ_rrwtPmn1DH9PQR-Kl-6" edge="1">
          <mxGeometry width="50" height="50" relative="1" as="geometry">
            <mxPoint x="559" y="503" as="sourcePoint" />
            <mxPoint x="609" y="453" as="targetPoint" />
          </mxGeometry>
        </mxCell>
        <mxCell id="fQ_rrwtPmn1DH9PQR-Kl-10" value="" style="endArrow=none;html=1;rounded=0;entryX=0;entryY=0;entryDx=70;entryDy=32;entryPerimeter=0;exitX=0;exitY=0;exitDx=0;exitDy=32;exitPerimeter=0;" parent="1" source="lA73tTkBRhyWHe-zrsxG-7" target="lA73tTkBRhyWHe-zrsxG-8" edge="1">
          <mxGeometry width="50" height="50" relative="1" as="geometry">
            <mxPoint x="527" y="376" as="sourcePoint" />
            <mxPoint x="577" y="326" as="targetPoint" />
            <Array as="points">
              <mxPoint x="447" y="553" />
              <mxPoint x="447" y="176" />
            </Array>
          </mxGeometry>
        </mxCell>
        <mxCell id="fQ_rrwtPmn1DH9PQR-Kl-11" value="" style="endArrow=none;html=1;rounded=0;entryX=0;entryY=0;entryDx=70;entryDy=32;entryPerimeter=0;exitX=0;exitY=0;exitDx=0;exitDy=32;exitPerimeter=0;" parent="1" source="lA73tTkBRhyWHe-zrsxG-6" target="lA73tTkBRhyWHe-zrsxG-8" edge="1">
          <mxGeometry width="50" height="50" relative="1" as="geometry">
            <mxPoint x="527" y="376" as="sourcePoint" />
            <mxPoint x="577" y="326" as="targetPoint" />
            <Array as="points">
              <mxPoint x="447" y="491" />
              <mxPoint x="447" y="176" />
            </Array>
          </mxGeometry>
        </mxCell>
        <mxCell id="fQ_rrwtPmn1DH9PQR-Kl-12" value="" style="endArrow=none;html=1;rounded=0;entryX=0;entryY=0;entryDx=70;entryDy=32;entryPerimeter=0;exitX=0;exitY=0;exitDx=0;exitDy=32;exitPerimeter=0;" parent="1" source="lA73tTkBRhyWHe-zrsxG-5" target="lA73tTkBRhyWHe-zrsxG-8" edge="1">
          <mxGeometry width="50" height="50" relative="1" as="geometry">
            <mxPoint x="527" y="376" as="sourcePoint" />
            <mxPoint x="577" y="326" as="targetPoint" />
            <Array as="points">
              <mxPoint x="447" y="429" />
              <mxPoint x="447" y="176" />
            </Array>
          </mxGeometry>
        </mxCell>
        <mxCell id="fQ_rrwtPmn1DH9PQR-Kl-13" value="" style="endArrow=none;html=1;rounded=0;entryX=0;entryY=0;entryDx=70;entryDy=32;entryPerimeter=0;exitX=0;exitY=0;exitDx=0;exitDy=32;exitPerimeter=0;" parent="1" source="lA73tTkBRhyWHe-zrsxG-4" target="lA73tTkBRhyWHe-zrsxG-8" edge="1">
          <mxGeometry width="50" height="50" relative="1" as="geometry">
            <mxPoint x="527" y="376" as="sourcePoint" />
            <mxPoint x="577" y="326" as="targetPoint" />
            <Array as="points">
              <mxPoint x="447" y="366" />
              <mxPoint x="447" y="176" />
            </Array>
          </mxGeometry>
        </mxCell>
        <mxCell id="fQ_rrwtPmn1DH9PQR-Kl-14" value="" style="endArrow=none;html=1;rounded=0;entryX=0;entryY=0;entryDx=70;entryDy=32;entryPerimeter=0;exitX=0;exitY=0;exitDx=0;exitDy=32;exitPerimeter=0;" parent="1" source="lA73tTkBRhyWHe-zrsxG-3" target="lA73tTkBRhyWHe-zrsxG-8" edge="1">
          <mxGeometry width="50" height="50" relative="1" as="geometry">
            <mxPoint x="527" y="376" as="sourcePoint" />
            <mxPoint x="577" y="326" as="targetPoint" />
            <Array as="points">
              <mxPoint x="447" y="301" />
              <mxPoint x="447" y="176" />
            </Array>
          </mxGeometry>
        </mxCell>
        <mxCell id="fQ_rrwtPmn1DH9PQR-Kl-15" value="" style="endArrow=none;html=1;rounded=0;entryX=0;entryY=0;entryDx=70;entryDy=32;entryPerimeter=0;exitX=0;exitY=0;exitDx=0;exitDy=32;exitPerimeter=0;" parent="1" source="lA73tTkBRhyWHe-zrsxG-2" target="lA73tTkBRhyWHe-zrsxG-8" edge="1">
          <mxGeometry width="50" height="50" relative="1" as="geometry">
            <mxPoint x="527" y="376" as="sourcePoint" />
            <mxPoint x="577" y="326" as="targetPoint" />
            <Array as="points">
              <mxPoint x="447" y="236" />
              <mxPoint x="447" y="176" />
            </Array>
          </mxGeometry>
        </mxCell>
        <mxCell id="fQ_rrwtPmn1DH9PQR-Kl-16" value="" style="endArrow=none;html=1;rounded=0;entryX=0;entryY=0;entryDx=70;entryDy=32;entryPerimeter=0;exitX=0;exitY=0;exitDx=0;exitDy=32;exitPerimeter=0;" parent="1" source="lA73tTkBRhyWHe-zrsxG-1" target="lA73tTkBRhyWHe-zrsxG-8" edge="1">
          <mxGeometry width="50" height="50" relative="1" as="geometry">
            <mxPoint x="527" y="376" as="sourcePoint" />
            <mxPoint x="577" y="326" as="targetPoint" />
          </mxGeometry>
        </mxCell>
        <mxCell id="KhOmGVjQLDmBKWWA1W_I-1" value="Connect.php" style="rounded=0;whiteSpace=wrap;html=1;" vertex="1" parent="1">
          <mxGeometry x="590" y="288" width="110" height="25" as="geometry" />
        </mxCell>
        <mxCell id="KhOmGVjQLDmBKWWA1W_I-2" value="Rooms.php" style="rounded=0;whiteSpace=wrap;html=1;flipV=1;" vertex="1" parent="1">
          <mxGeometry x="759" y="357" width="110" height="25" as="geometry" />
        </mxCell>
        <mxCell id="KhOmGVjQLDmBKWWA1W_I-3" value="User.php" style="rounded=0;whiteSpace=wrap;html=1;flipV=1;" vertex="1" parent="1">
          <mxGeometry x="759" y="288" width="110" height="25" as="geometry" />
        </mxCell>
        <mxCell id="KhOmGVjQLDmBKWWA1W_I-4" value="Services.php" style="rounded=0;whiteSpace=wrap;html=1;flipV=1;" vertex="1" parent="1">
          <mxGeometry x="759" y="415" width="110" height="25" as="geometry" />
        </mxCell>
        <mxCell id="KhOmGVjQLDmBKWWA1W_I-5" value="Admin_info.php" style="rounded=0;whiteSpace=wrap;html=1;flipV=1;" vertex="1" parent="1">
          <mxGeometry x="759" y="476" width="110" height="25" as="geometry" />
        </mxCell>
        <mxCell id="KhOmGVjQLDmBKWWA1W_I-6" value="Admin_change.php" style="rounded=0;whiteSpace=wrap;html=1;flipV=1;" vertex="1" parent="1">
          <mxGeometry x="759" y="538" width="110" height="25" as="geometry" />
        </mxCell>
        <mxCell id="KhOmGVjQLDmBKWWA1W_I-7" value="" style="endArrow=none;html=1;rounded=0;entryX=1;entryY=0.5;entryDx=0;entryDy=0;exitX=0;exitY=0.5;exitDx=0;exitDy=0;" edge="1" parent="1" source="KhOmGVjQLDmBKWWA1W_I-3" target="KhOmGVjQLDmBKWWA1W_I-1">
          <mxGeometry width="50" height="50" relative="1" as="geometry">
            <mxPoint x="945" y="598" as="sourcePoint" />
            <mxPoint x="995" y="548" as="targetPoint" />
          </mxGeometry>
        </mxCell>
        <mxCell id="KhOmGVjQLDmBKWWA1W_I-8" value="" style="endArrow=none;html=1;rounded=0;entryX=1;entryY=0.5;entryDx=0;entryDy=0;exitX=0;exitY=0.5;exitDx=0;exitDy=0;" edge="1" parent="1" source="KhOmGVjQLDmBKWWA1W_I-2" target="KhOmGVjQLDmBKWWA1W_I-1">
          <mxGeometry width="50" height="50" relative="1" as="geometry">
            <mxPoint x="945" y="598" as="sourcePoint" />
            <mxPoint x="995" y="548" as="targetPoint" />
            <Array as="points">
              <mxPoint x="733" y="370" />
              <mxPoint x="733" y="301" />
            </Array>
          </mxGeometry>
        </mxCell>
        <mxCell id="KhOmGVjQLDmBKWWA1W_I-9" value="" style="endArrow=none;html=1;rounded=0;entryX=1;entryY=0.5;entryDx=0;entryDy=0;exitX=0;exitY=0.5;exitDx=0;exitDy=0;" edge="1" parent="1" source="KhOmGVjQLDmBKWWA1W_I-4" target="KhOmGVjQLDmBKWWA1W_I-1">
          <mxGeometry width="50" height="50" relative="1" as="geometry">
            <mxPoint x="682" y="453" as="sourcePoint" />
            <mxPoint x="732" y="403" as="targetPoint" />
            <Array as="points">
              <mxPoint x="733" y="428" />
              <mxPoint x="733" y="301" />
            </Array>
          </mxGeometry>
        </mxCell>
        <mxCell id="KhOmGVjQLDmBKWWA1W_I-10" value="" style="endArrow=none;html=1;rounded=0;entryX=1;entryY=0.5;entryDx=0;entryDy=0;exitX=0;exitY=0.5;exitDx=0;exitDy=0;" edge="1" parent="1" source="KhOmGVjQLDmBKWWA1W_I-6" target="KhOmGVjQLDmBKWWA1W_I-1">
          <mxGeometry width="50" height="50" relative="1" as="geometry">
            <mxPoint x="692" y="463" as="sourcePoint" />
            <mxPoint x="742" y="413" as="targetPoint" />
            <Array as="points">
              <mxPoint x="733" y="551" />
              <mxPoint x="733" y="301" />
            </Array>
          </mxGeometry>
        </mxCell>
        <mxCell id="KhOmGVjQLDmBKWWA1W_I-11" value="" style="endArrow=none;html=1;rounded=0;entryX=1;entryY=0.5;entryDx=0;entryDy=0;exitX=0;exitY=0.5;exitDx=0;exitDy=0;" edge="1" parent="1" source="KhOmGVjQLDmBKWWA1W_I-5" target="KhOmGVjQLDmBKWWA1W_I-1">
          <mxGeometry width="50" height="50" relative="1" as="geometry">
            <mxPoint x="702" y="473" as="sourcePoint" />
            <mxPoint x="752" y="423" as="targetPoint" />
            <Array as="points">
              <mxPoint x="733" y="489" />
              <mxPoint x="733" y="301" />
            </Array>
          </mxGeometry>
        </mxCell>
        <mxCell id="KhOmGVjQLDmBKWWA1W_I-12" value="" style="endArrow=none;html=1;rounded=0;entryX=0;entryY=0.5;entryDx=0;entryDy=0;exitX=0;exitY=0;exitDx=70;exitDy=32;exitPerimeter=0;" edge="1" parent="1" source="lA73tTkBRhyWHe-zrsxG-3" target="KhOmGVjQLDmBKWWA1W_I-1">
          <mxGeometry width="50" height="50" relative="1" as="geometry">
            <mxPoint x="553" y="350" as="sourcePoint" />
            <mxPoint x="603" y="300" as="targetPoint" />
          </mxGeometry>
        </mxCell>
      </root>
    </mxGraphModel>
  </diagram>
  <diagram id="X6LoLTev2hOIWr8-T43e" name="Логическая структура (3)">
    <mxGraphModel dx="819" dy="446" grid="0" gridSize="10" guides="1" tooltips="1" connect="1" arrows="1" fold="1" page="1" pageScale="1" pageWidth="827" pageHeight="1169" math="0" shadow="0">
      <root>
        <mxCell id="0" />
        <mxCell id="1" parent="0" />
        <mxCell id="zhbEF4BM8jHChtJVvIJ1-1" value="Connect.php" style="rounded=0;whiteSpace=wrap;html=1;" vertex="1" parent="1">
          <mxGeometry x="31" y="214" width="120" height="30" as="geometry" />
        </mxCell>
        <mxCell id="zhbEF4BM8jHChtJVvIJ1-2" value="Rooms.php" style="rounded=0;whiteSpace=wrap;html=1;flipV=1;" vertex="1" parent="1">
          <mxGeometry x="200" y="283" width="150" height="30" as="geometry" />
        </mxCell>
        <mxCell id="zhbEF4BM8jHChtJVvIJ1-3" value="User.php" style="rounded=0;whiteSpace=wrap;html=1;flipV=1;" vertex="1" parent="1">
          <mxGeometry x="200" y="214" width="150" height="30" as="geometry" />
        </mxCell>
        <mxCell id="zhbEF4BM8jHChtJVvIJ1-4" value="Services.php" style="rounded=0;whiteSpace=wrap;html=1;flipV=1;" vertex="1" parent="1">
          <mxGeometry x="200" y="341" width="150" height="30" as="geometry" />
        </mxCell>
        <mxCell id="zhbEF4BM8jHChtJVvIJ1-5" value="Admin_info.php" style="rounded=0;whiteSpace=wrap;html=1;flipV=1;" vertex="1" parent="1">
          <mxGeometry x="200" y="402" width="150" height="30" as="geometry" />
        </mxCell>
        <mxCell id="zhbEF4BM8jHChtJVvIJ1-6" value="Admin_change.php" style="rounded=0;whiteSpace=wrap;html=1;flipV=1;" vertex="1" parent="1">
          <mxGeometry x="200" y="464" width="150" height="30" as="geometry" />
        </mxCell>
        <mxCell id="zhbEF4BM8jHChtJVvIJ1-8" value="" style="endArrow=none;html=1;rounded=0;entryX=1;entryY=0.5;entryDx=0;entryDy=0;exitX=0;exitY=0.5;exitDx=0;exitDy=0;" edge="1" parent="1" source="zhbEF4BM8jHChtJVvIJ1-3" target="zhbEF4BM8jHChtJVvIJ1-1">
          <mxGeometry width="50" height="50" relative="1" as="geometry">
            <mxPoint x="387" y="526" as="sourcePoint" />
            <mxPoint x="437" y="476" as="targetPoint" />
          </mxGeometry>
        </mxCell>
        <mxCell id="zhbEF4BM8jHChtJVvIJ1-9" value="" style="endArrow=none;html=1;rounded=0;entryX=1;entryY=0.5;entryDx=0;entryDy=0;exitX=0;exitY=0.5;exitDx=0;exitDy=0;" edge="1" parent="1" source="zhbEF4BM8jHChtJVvIJ1-2" target="zhbEF4BM8jHChtJVvIJ1-1">
          <mxGeometry width="50" height="50" relative="1" as="geometry">
            <mxPoint x="387" y="526" as="sourcePoint" />
            <mxPoint x="437" y="476" as="targetPoint" />
            <Array as="points">
              <mxPoint x="175" y="298" />
              <mxPoint x="175" y="229" />
            </Array>
          </mxGeometry>
        </mxCell>
        <mxCell id="zhbEF4BM8jHChtJVvIJ1-10" value="" style="endArrow=none;html=1;rounded=0;entryX=1;entryY=0.5;entryDx=0;entryDy=0;exitX=0;exitY=0.5;exitDx=0;exitDy=0;" edge="1" parent="1" source="zhbEF4BM8jHChtJVvIJ1-4" target="zhbEF4BM8jHChtJVvIJ1-1">
          <mxGeometry width="50" height="50" relative="1" as="geometry">
            <mxPoint x="124" y="381" as="sourcePoint" />
            <mxPoint x="174" y="331" as="targetPoint" />
            <Array as="points">
              <mxPoint x="175" y="356" />
              <mxPoint x="175" y="229" />
            </Array>
          </mxGeometry>
        </mxCell>
        <mxCell id="zhbEF4BM8jHChtJVvIJ1-11" value="" style="endArrow=none;html=1;rounded=0;entryX=1;entryY=0.5;entryDx=0;entryDy=0;exitX=0;exitY=0.5;exitDx=0;exitDy=0;" edge="1" parent="1" source="zhbEF4BM8jHChtJVvIJ1-6" target="zhbEF4BM8jHChtJVvIJ1-1">
          <mxGeometry width="50" height="50" relative="1" as="geometry">
            <mxPoint x="134" y="391" as="sourcePoint" />
            <mxPoint x="184" y="341" as="targetPoint" />
            <Array as="points">
              <mxPoint x="175" y="479" />
              <mxPoint x="175" y="229" />
            </Array>
          </mxGeometry>
        </mxCell>
        <mxCell id="zhbEF4BM8jHChtJVvIJ1-12" value="" style="endArrow=none;html=1;rounded=0;entryX=1;entryY=0.5;entryDx=0;entryDy=0;exitX=0;exitY=0.5;exitDx=0;exitDy=0;" edge="1" parent="1" source="zhbEF4BM8jHChtJVvIJ1-5" target="zhbEF4BM8jHChtJVvIJ1-1">
          <mxGeometry width="50" height="50" relative="1" as="geometry">
            <mxPoint x="144" y="401" as="sourcePoint" />
            <mxPoint x="194" y="351" as="targetPoint" />
            <Array as="points">
              <mxPoint x="175" y="417" />
              <mxPoint x="175" y="229" />
            </Array>
          </mxGeometry>
        </mxCell>
      </root>
    </mxGraphModel>
  </diagram>
</mxfile>
